<?xml version="1.0" encoding="UTF-8"?><svg id="Layer_2" xmlns="http://www.w3.org/2000/svg" viewBox="0 0 251.16 266.25"><defs><style>.cls-1{stroke:#b36834;stroke-miterlimit:10;}.cls-1,.cls-2{fill:#e09048;}.cls-3{fill:#401c0e;}.cls-3,.cls-2,.cls-4,.cls-5,.cls-6,.cls-7{stroke-width:0px;}.cls-4{fill:#ce834a;}.cls-5{fill:#b94446;}.cls-6{fill:#f2ae40;}.cls-7{fill:#fff;}</style></defs><g id="Layer_1-2"><path class="cls-2" d="m194.6,185.47c-5.82-16.49-10.72-33.92-21.97-48.65-26.49,2.81-53.53.49-79.14-6.87-15.2,26.84-24.69,54.92-28.67,83.78-1.27,9.19-1.89,19.01,2.22,27.32,5.3,10.72,17.05,16.37,27.98,21.25,3.56,1.59,7.49,3.21,11.23,2.12,3.84-1.12,6.41-4.93,7.22-8.85.81-3.92.19-7.97-.43-11.93l31.33,3.13c-.03.36-.09.7-.15,1.05-3.15,3.07-2.89,8.74-.08,12.05,2.81,3.31,7.33,4.65,11.66,5,17.21,1.41,33.55-10.68,41.07-26.22.74-1.53,1.39-3.09,1.99-4.67-2.36-15.95,2.65-32.98-4.25-48.52Z"/><path class="cls-2" d="m201.32,187.91c-3.35-18.44-10.18-36.24-20.04-52.18-2.87.43-5.76.78-8.65,1.09,11.25,14.72,16.15,32.15,21.97,48.65,6.91,15.54,1.89,32.57,4.25,48.52,5.49-14.45,5.25-30.76,2.47-46.07Z"/><path class="cls-1" d="m140.42,238.43c-.67,6.36-1.34,12.73-2.01,19.09-.19,1.81-.32,3.84.83,5.26,1.1,1.35,3,1.68,4.72,1.89,3.21.4,6.43.73,9.66.98,2.55.2,5.39.27,7.35-1.38,1.81-1.52,2.32-4.04,2.72-6.36,1.26-7.24,2.51-14.47,3.77-21.71"/><path class="cls-1" d="m108.43,235.57c.04,6.76.23,13.51.55,20.26.1,2.15.28,4.46,1.63,6.14,1.41,1.75,3.82,2.39,6.07,2.41s4.48-.46,6.73-.5c2.63-.04,5.6.42,7.59-1.3,1.31-1.13,1.81-2.92,2.17-4.62,1.35-6.32,1.8-12.83,1.32-19.27"/><path class="cls-2" d="m78.66,206.61c-6.64,4.54-16.09,3.62-22.62-1.08s-10.29-12.56-11.36-20.53.28-16.08,2.39-23.84c-10.72,9.66-16.28,24.75-14.4,39.05s11.15,27.44,24,34.01c5.99,3.06,13.73,4.58,19.14.58,3.94-2.9,5.62-8.11,5.49-13s-1.82-9.59-2.64-15.2Z"/><path class="cls-6" d="m201.32,188.85c-3.35-18.06-10.18-35.5-20.04-51.12-2.87.42-5.76.76-8.65,1.06,11.25,14.42,16.15,31.5,21.97,47.66,6.91,15.22,1.89,31.91,4.25,47.53,5.49-14.16,5.25-30.13,2.47-45.13Z"/><path class="cls-5" d="m135.71,152.73c-21.65-.27-40.23-4.52-48.43-10.4-5.6,2.51-8.86,5.53-8.9,8.82-.11,9.12,24.62,16.82,55.23,17.19,30.61.38,55.51-6.71,55.62-15.83.03-2.84-2.35-5.55-6.56-7.93-9.01,5.08-26.68,8.4-46.96,8.15Z"/><path class="cls-4" d="m79.51,163.12c0-.54,0-1.24-.05-2-7.03,16.93-11.88,34.27-14.58,51.91-1.42,9.27-2.15,19.18,2.15,27.61,5.55,10.87,17.98,16.66,29.53,21.67,2.63,1.14,5.45,2.29,8.26,2.52-3.63-1.29-7.11-3.2-10.12-4.66-43.36-20.52-14.38-64.73-15.2-97.05Z"/><path class="cls-2" d="m70.95,30.18c-1.37-5.47-2.79-11.06-5.99-15.7s-8.62-8.17-14.21-7.53c-5.66.65-10,5.2-13.57,9.63C16.59,42.11,3.59,73.67.23,106.29c-.68,6.6-.18,14.74,5.71,17.8,3.33,1.73,7.48,1.13,10.79-.64s5.91-4.58,8.4-7.39c20.15-22.78,55.03-49.04,45.83-85.87Z"/><path class="cls-2" d="m235.9,42.14c1,1.5,2.21,3.2,3.7,4.68-2.97-8.88-6.49-18.02-10.59-27.54-2.54-5.91-6.26-12.7-12.67-13.21-5.43-.43-9.92,4.03-12.83,8.7,11.78,8.55,22.58,16.48,32.38,27.38Z"/><path class="cls-2" d="m239.61,46.81c-1.5-1.48-2.71-3.18-3.7-4.68-9.8-10.89-20.6-18.83-32.38-27.38-.11.18-.23.37-.34.55-9.93,16.63-10.18,37.68-4.81,56.29,5.37,18.61,15.81,35.3,26.48,51.47,3.72,5.64,9,11.98,15.69,10.99,4.02-.59,7.23-3.89,8.79-7.64s1.76-7.91,1.81-11.97c.29-22.06-3.61-43.91-11.54-67.64Z"/><path class="cls-2" d="m193.11,23.55c-10.38-9.8-23.18-17.02-41.19-20.83-27.19-5.06-56.48,2.7-77.61,20.54-21.13,17.84-33.68,45.42-33.25,73.08.18,11.33,2.73,23.24,10.45,31.53,6.41,6.89,15.58,10.46,24.61,13.1,15.74,4.59,32.03,7,48.33,8.81,14.51,1.61,29.21,2.75,43.68.77s28.82-7.31,39.52-17.24c15.16-14.05,21.32-36.3,18.19-56.73s-16.13-37.35-32.72-53.01Z"/><path class="cls-6" d="m78.99,24.96c15.32.76,27.76-11.38,43.08-12.89,18.19-1.52,37.34,0,54.57,7.58,7.49,2.97,12.24,11.73,22.29,10.7-4.62-5.75-10.7-11.1-17.56-16.23-8.27-6.19-18.48-10.75-32.83-13.15-21.67-3.19-45.02,1.7-61.87,12.97-3.33,2.23-6.39,4.7-9.15,7.36-.45,1.84-.41,3.3,1.46,3.67Z"/><path class="cls-6" d="m65.04,15.01c-3.23-4.48-8.52-7.85-13.99-7.22-5.66.65-10,5.2-13.57,9.63-9.19,11.39-16.85,23.99-22.84,37.35,18.06-8.78,31.12-25.02,47.79-38.57.87-.44,1.74-.82,2.61-1.19Z"/><path class="cls-6" d="m233.78,38c.9,1.32,1.98,2.83,3.32,4.14-2.66-7.86-5.82-15.95-9.5-24.38-2.28-5.23-5.61-11.24-11.36-11.7-4.87-.38-8.9,3.57-11.52,7.7,10.57,7.57,20.26,14.59,29.06,24.24Z"/><path class="cls-3" d="m134.39,84.94c-3.04-.24-6.24.17-8.79,1.85s-4.26,4.83-3.61,7.8c.42,1.91,1.72,3.52,3.27,4.72,2.64,2.05,6.09,3.03,9.43,2.69s6.53-1.99,8.72-4.52c1.97-2.27,3.13-5.61,1.83-8.31-.88-1.83-2.75-3.04-4.71-3.6s-4.04-.47-6.14-.63Z"/><circle class="cls-3" cx="92.78" cy="83.16" r="7.41"/><circle class="cls-7" cx="92.78" cy="80.44" r="2.58"/><circle class="cls-3" cx="177.44" cy="84.88" r="7.41"/><circle class="cls-7" cx="177.44" cy="82.16" r="2.58"/></g></svg>