<?xml version="1.0" encoding="UTF-8"?><svg id="Layer_2" xmlns="http://www.w3.org/2000/svg" viewBox="0 0 250.39 343.86"><defs><style>.cls-1{stroke:#b36834;stroke-miterlimit:10;}.cls-1,.cls-2{fill:#e09048;}.cls-3{fill:#401c0e;}.cls-3,.cls-2,.cls-4,.cls-5,.cls-6,.cls-7{stroke-width:0px;}.cls-4{fill:#ce834a;}.cls-5{fill:#b94446;}.cls-6{fill:#f2ae40;}.cls-7{fill:#fff;}.cls-8{fill:#6c85c0;font-family:UrbaneRounded-Heavy, 'Urbane Rounded';font-size:75.76px;font-weight:800;isolation:isolate;}</style></defs><g id="Layer_4"><path class="cls-2" d="m192.79,263.07c-5.82-16.49-10.72-33.92-21.97-48.65-26.49,2.81-53.53.49-79.14-6.87-15.2,26.84-24.69,54.92-28.67,83.78-1.27,9.19-1.89,19.01,2.22,27.32,5.3,10.72,17.05,16.37,27.98,21.25,3.56,1.59,7.49,3.21,11.23,2.12,3.84-1.12,6.41-4.93,7.22-8.85.81-3.92.19-7.97-.43-11.93l31.33,3.13c-.03.36-.09.7-.15,1.05-3.15,3.07-2.89,8.74-.08,12.05,2.81,3.31,7.33,4.65,11.66,5,17.21,1.41,33.55-10.68,41.07-26.22.74-1.53,1.39-3.09,1.99-4.67-2.36-15.95,2.65-32.98-4.25-48.52Z"/><path class="cls-2" d="m199.51,265.52c-3.35-18.44-10.18-36.24-20.04-52.18-2.87.43-5.76.78-8.65,1.09,11.25,14.72,16.15,32.15,21.97,48.65,6.91,15.54,1.89,32.57,4.25,48.52,5.49-14.45,5.25-30.76,2.47-46.07Z"/><path class="cls-1" d="m138.61,316.03c-.67,6.36-1.34,12.73-2.01,19.09-.19,1.81-.32,3.84.83,5.26,1.1,1.35,3,1.68,4.72,1.89,3.21.4,6.43.73,9.66.98,2.55.2,5.39.27,7.35-1.38,1.81-1.52,2.32-4.04,2.72-6.36,1.26-7.24,2.51-14.47,3.77-21.71"/><path class="cls-1" d="m106.62,313.18c.04,6.76.23,13.51.55,20.26.1,2.15.28,4.46,1.63,6.14,1.41,1.75,3.82,2.39,6.07,2.41s4.48-.46,6.73-.5c2.63-.04,5.6.42,7.59-1.3,1.31-1.13,1.81-2.92,2.17-4.62,1.35-6.32,1.8-12.83,1.32-19.27"/><path class="cls-2" d="m76.85,284.21c-6.64,4.54-16.09,3.62-22.62-1.08s-10.29-12.56-11.36-20.53.28-16.08,2.39-23.84c-10.72,9.66-16.28,24.75-14.4,39.05s11.15,27.44,24,34.01c5.99,3.06,13.73,4.58,19.14.58,3.94-2.9,5.62-8.11,5.49-13s-1.82-9.59-2.64-15.2Z"/><path class="cls-6" d="m199.51,266.45c-3.35-18.06-10.18-35.5-20.04-51.12-2.87.42-5.76.76-8.65,1.06,11.25,14.42,16.15,31.5,21.97,47.66,6.91,15.22,1.89,31.91,4.25,47.53,5.49-14.16,5.25-30.13,2.47-45.13Z"/><path class="cls-5" d="m136.55,230.64c-22.45-2.62-41.27-8.87-49.14-15.6-6.08,1.88-9.81,4.54-10.21,7.8-1.11,9.05,23.71,19.4,55.45,23.1,31.74,3.7,58.37-.64,59.48-9.69.35-2.82-1.83-5.77-5.94-8.6-9.92,4.07-28.62,5.45-49.64,2.99Z"/><path class="cls-4" d="m77.69,240.72c0-.54,0-1.24-.05-2-7.03,16.93-11.88,34.27-14.58,51.91-1.42,9.27-2.15,19.18,2.15,27.61,5.55,10.87,17.98,16.66,29.53,21.67,2.63,1.14,5.45,2.29,8.26,2.52-3.63-1.29-7.11-3.2-10.12-4.66-43.36-20.52-14.38-64.73-15.2-97.05Z"/><path class="cls-2" d="m82.96,101.15c-.5-5.61-1.03-11.36-3.48-16.44-2.44-5.08-7.24-9.41-12.87-9.65-5.69-.24-10.68,3.58-14.91,7.4C27.41,104.47,9.66,133.63,1.27,165.33c-1.7,6.42-2.47,14.53,2.87,18.47,3.02,2.23,7.22,2.28,10.76,1.04,3.54-1.24,6.55-3.61,9.44-5.99,23.45-19.37,61.99-39.88,58.63-77.7Z"/><path class="cls-2" d="m244.05,138.62c.75,1.63,1.68,3.5,2.93,5.2-1.55-9.24-3.6-18.81-6.17-28.85-1.59-6.23-4.2-13.52-10.46-15.02-5.3-1.27-10.42,2.44-14.03,6.6,10.31,10.28,19.74,19.79,27.73,32.08Z"/><path class="cls-2" d="m246.98,143.82c-1.25-1.7-2.18-3.56-2.93-5.2-7.99-12.29-17.42-21.8-27.73-32.08-.14.16-.29.33-.42.49-12.4,14.88-15.91,35.63-13.51,54.85,2.41,19.22,10.13,37.33,18.15,54.96,2.8,6.15,7.02,13.23,13.79,13.3,4.06.04,7.75-2.72,9.88-6.18s2.97-7.54,3.65-11.54c3.72-21.74,3.27-43.94-.88-68.61Z"/><path class="cls-2" d="m204.66,113.61c-8.73-11.3-20.25-20.42-37.45-26.99-26.07-9.22-56.22-6.12-79.86,8.21-23.65,14.34-40.34,39.63-44.21,67.01-1.59,11.22-.92,23.38,5.42,32.77,5.26,7.8,13.76,12.76,22.27,16.77,14.83,6.98,30.55,11.9,46.37,16.22,14.08,3.85,28.43,7.26,43.03,7.56s29.6-2.74,41.72-10.88c17.16-11.53,26.71-32.54,26.8-53.21s-10.13-39.4-24.08-57.46Z"/><path class="cls-6" d="m91.72,97.24c15.01,3.13,29.2-6.92,44.56-6.03,18.21,1.33,36.88,5.81,52.73,15.98,6.94,4.1,10.26,13.49,20.35,14.03-3.67-6.4-8.84-12.63-14.82-18.76-7.21-7.4-16.58-13.49-30.39-18.1-20.91-6.52-44.74-5.32-63.13,3.19-3.63,1.68-7.04,3.65-10.19,5.84-.73,1.75-.92,3.2.87,3.86Z"/><path class="cls-6" d="m79.48,85.25c-2.49-4.93-7.19-9.08-12.69-9.31-5.69-.24-10.68,3.58-14.91,7.4-10.85,9.82-20.38,21.08-28.37,33.34,19.21-5.86,34.63-19.88,53.2-30.66.93-.29,1.85-.54,2.77-.77Z"/><path class="cls-6" d="m242.59,134.2c.68,1.45,1.52,3.1,2.64,4.61-1.41-8.18-3.27-16.66-5.59-25.56-1.44-5.52-3.8-11.98-9.41-13.32-4.75-1.14-9.34,2.14-12.57,5.81,9.26,9.12,17.74,17.57,24.93,28.46Z"/><path class="cls-3" d="m137.12,165.11c-2.96-.71-6.19-.8-8.97.46s-4.96,4.11-4.78,7.14c.11,1.95,1.16,3.75,2.5,5.17,2.29,2.43,5.55,3.94,8.89,4.13s6.76-.95,9.32-3.11c2.3-1.94,3.96-5.05,3.1-7.92-.59-1.95-2.24-3.43-4.09-4.29s-3.92-1.09-5.97-1.58Z"/><circle class="cls-3" cx="179.48" cy="169.97" r="7.41"/><circle class="cls-7" cx="177.2" cy="167.87" r="2.58"/><circle class="cls-3" cx="98.55" cy="158.1" r="7.41"/><circle class="cls-7" cx="96.27" cy="156.01" r="2.58"/><text class="cls-8" transform="translate(72.34 64.69) rotate(7.85)"><tspan x="0" y="0">?</tspan></text><text class="cls-8" transform="translate(128.37 64.69) rotate(7.85)"><tspan x="0" y="0">?</tspan></text><text class="cls-8" transform="translate(182.41 78.43) rotate(7.85)"><tspan x="0" y="0">?</tspan></text></g></svg>