<?xml version="1.0" encoding="UTF-8"?><svg id="Layer_2" xmlns="http://www.w3.org/2000/svg" viewBox="0 0 250.67 269.49"><defs><style>.cls-1{fill:none;stroke-linecap:round;stroke-width:3px;}.cls-1,.cls-2{stroke:#010101;}.cls-1,.cls-2,.cls-3{stroke-miterlimit:10;}.cls-2{fill:#fff;}.cls-3{stroke:#b36834;}.cls-3,.cls-4{fill:#e09048;}.cls-5{fill:#3f1e12;}.cls-5,.cls-4,.cls-6,.cls-7,.cls-8{stroke-width:0px;}.cls-6{fill:#ce834a;}.cls-7{fill:#b94446;}.cls-8{fill:#f2ae40;}</style></defs><g id="Layer_6"><path class="cls-4" d="m190.39,188.71c-5.82-16.49-10.72-33.92-21.97-48.65-26.49,2.81-53.53.49-79.14-6.87-15.2,26.84-24.69,54.92-28.67,83.78-1.27,9.19-1.89,19.01,2.22,27.32,5.3,10.72,17.05,16.37,27.98,21.25,3.56,1.59,7.49,3.21,11.23,2.12,3.84-1.12,6.41-4.93,7.22-8.85.81-3.92.19-7.97-.43-11.93l31.33,3.13c-.03.36-.09.7-.15,1.05-3.15,3.07-2.89,8.74-.08,12.05,2.81,3.31,7.33,4.65,11.66,5,17.21,1.41,33.55-10.68,41.07-26.22.74-1.53,1.39-3.09,1.99-4.67-2.36-15.95,2.65-32.98-4.25-48.52Z"/><path class="cls-4" d="m197.11,191.15c-3.35-18.44-10.18-36.24-20.04-52.18-2.87.43-5.76.78-8.65,1.09,11.25,14.72,16.15,32.15,21.97,48.65,6.91,15.54,1.89,32.57,4.25,48.52,5.49-14.45,5.25-30.76,2.47-46.07Z"/><path class="cls-3" d="m136.22,241.67c-.67,6.36-1.34,12.73-2.01,19.09-.19,1.81-.32,3.84.83,5.26,1.1,1.35,3,1.68,4.72,1.89,3.21.4,6.43.73,9.66.98,2.55.2,5.39.27,7.35-1.38,1.81-1.52,2.32-4.04,2.72-6.36,1.26-7.24,2.51-14.47,3.77-21.71"/><path class="cls-3" d="m104.23,238.81c.04,6.76.23,13.51.55,20.26.1,2.15.28,4.46,1.63,6.14,1.41,1.75,3.82,2.39,6.07,2.41s4.48-.46,6.73-.5c2.63-.04,5.6.42,7.59-1.3,1.31-1.13,1.81-2.92,2.17-4.62,1.35-6.32,1.8-12.83,1.32-19.27"/><path class="cls-4" d="m74.46,209.85c-6.64,4.54-16.09,3.62-22.62-1.08-6.52-4.7-10.29-12.56-11.36-20.53s.28-16.08,2.39-23.84c-10.72,9.66-16.28,24.75-14.4,39.05s11.15,27.44,24,34.01c5.99,3.06,13.73,4.58,19.14.58,3.94-2.9,5.62-8.11,5.49-13s-1.82-9.59-2.64-15.2Z"/><path class="cls-8" d="m197.11,192.09c-3.35-18.06-10.18-35.5-20.04-51.12-2.87.42-5.76.76-8.65,1.06,11.25,14.42,16.15,31.5,21.97,47.66,6.91,15.22,1.89,31.91,4.25,47.53,5.49-14.16,5.25-30.13,2.47-45.13Z"/><path class="cls-7" d="m131.5,155.97c-21.65-.27-40.23-4.52-48.43-10.4-5.6,2.51-8.86,5.53-8.9,8.82-.11,9.12,24.62,16.82,55.23,17.19,30.61.38,55.51-6.71,55.62-15.83.03-2.84-2.35-5.55-6.56-7.93-9.01,5.08-26.68,8.4-46.96,8.15Z"/><path class="cls-6" d="m75.3,166.36c0-.54,0-1.24-.05-2-7.03,16.93-11.88,34.27-14.58,51.91-1.42,9.27-2.15,19.18,2.15,27.61,5.55,10.87,17.98,16.66,29.53,21.67,2.63,1.14,5.45,2.29,8.26,2.52-3.63-1.29-7.11-3.2-10.12-4.66-43.36-20.52-14.38-64.73-15.2-97.05Z"/><path class="cls-4" d="m62.18,39.52c-1.94-5.29-3.96-10.7-7.64-14.97s-9.44-7.2-14.94-5.97c-5.56,1.25-9.38,6.24-12.47,11.03C9.41,57.19-.14,89.96,0,122.75c.03,6.64,1.4,14.67,7.58,17.09,3.49,1.36,7.56.33,10.66-1.79,3.09-2.12,5.39-5.19,7.56-8.25,17.6-24.8,49.47-54.64,36.39-90.28Z"/><path class="cls-4" d="m227.47,33.78c1.15,1.38,2.54,2.94,4.18,4.25-3.9-8.51-8.37-17.22-13.47-26.25C215.02,6.18,210.6-.17,204.18,0c-5.45.15-9.43,5.07-11.83,10.02,12.63,7.24,24.21,13.97,35.12,23.76Z"/><path class="cls-4" d="m231.65,38.04c-1.65-1.31-3.03-2.87-4.18-4.25-10.91-9.78-22.49-16.52-35.12-23.76-.09.19-.19.39-.28.58-8.1,17.6-6.09,38.55,1.23,56.48,7.33,17.93,19.49,33.41,31.83,48.34,4.31,5.21,10.22,10.95,16.77,9.25,3.93-1.02,6.77-4.64,7.93-8.54s.91-8.05.53-12.09c-2.07-21.96-8.28-43.27-18.7-66.01Z"/><path class="cls-4" d="m182.93,19.88c-11.37-8.64-24.87-14.45-43.18-16.31-27.57-2.12-55.87,8.72-74.98,28.72-19.1,20-28.63,48.76-25.25,76.21,1.39,11.24,5.2,22.81,13.76,30.23,7.11,6.16,16.6,8.74,25.87,10.39,16.14,2.88,32.6,3.54,48.99,3.59,14.6.05,29.34-.39,43.51-3.9,14.17-3.52,27.87-10.35,37.45-21.36,13.57-15.59,17.32-38.37,12.03-58.35-5.3-19.98-20.03-35.41-38.2-49.21Z"/><path class="cls-8" d="m69.62,33.47c15.31-.88,26.39-14.28,41.46-17.42,17.92-3.45,37.12-3.99,55.07,1.71,7.76,2.15,13.42,10.35,23.3,8.25-5.21-5.23-11.82-9.89-19.19-14.26-8.89-5.27-19.52-8.71-34.05-9.57-21.89-.86-44.58,6.5-60.13,19.51-3.07,2.57-5.85,5.35-8.31,8.29-.25,1.88-.06,3.33,1.85,3.5Z"/><path class="cls-8" d="m54.68,25.07c-3.69-4.11-9.31-6.89-14.68-5.69-5.56,1.25-9.38,6.24-12.47,11.03-7.92,12.31-14.19,25.66-18.71,39.58,17.02-10.66,28.27-28.21,43.39-43.45.82-.53,1.64-1,2.47-1.47Z"/><path class="cls-8" d="m224.91,29.89c1.03,1.22,2.27,2.6,3.75,3.76-3.49-7.53-7.49-15.24-12.05-23.23C213.78,5.47,209.83-.15,204.06.01c-4.89.14-8.47,4.5-10.63,8.89,11.32,6.4,21.7,12.34,31.48,20.99Z"/><path class="cls-5" d="m131.92,88.47c-3.1-.03-6.16,1-8.6,2.91s-3.5,5.2-2.75,8.35c.79,1.9,2.1,3.47,3.82,4.43,6.04,3.68,13.95,1.94,18.14-3.96,1.75-2.6,2.48-5.94.8-8.62-1.21-1.76-3.11-2.81-5.2-3.04-2.09-.22-4.12-.31-6.21-.07Z"/><path class="cls-2" d="m94.23,82.04c-3.88.69-7.15,4.01-7.78,7.9s1.42,8.07,4.88,9.96,8.09,1.34,11.01-1.31c2.92-2.64,3.94-7.19,2.41-10.82s-5.55-6.61-10.52-5.73Z"/><path class="cls-2" d="m177.62,92.62c2.93-2.01,4.2-6.05,3.14-9.44s-4.24-5.96-7.76-6.48-7.2.92-9.61,3.53c-1.39,1.5-2.38,3.41-2.62,5.44s.34,4.19,1.71,5.7c2.38,2.64,6.52,2.91,9.21,5.24,1.08.93,1.96,2.21,3.32,2.65,1.41.45,3.1-.27,3.75-1.61s.17-3.11-1.14-5.03Z"/><path class="cls-1" d="m77.8,81.1c1.86,1.13,4.29,1.24,6.25.3s3.38-2.92,3.66-5.08"/><path class="cls-1" d="m175.58,68.96c.15,1.99,1.4,3.86,3.18,4.76s4.03.79,5.72-.27"/></g></svg>